<?xml version="1.0" encoding="UTF-8"?>
<svg width="14px" height="16px" viewBox="0 0 14 16" version="1.1" xmlns="http://www.w3.org/2000/svg" xmlns:xlink="http://www.w3.org/1999/xlink">
    <!-- Generator: Sketch 49.3 (51167) - http://www.bohemiancoding.com/sketch -->
    <title>Pinterest@2x</title>
    <desc>Created with Sketch.</desc>
    <defs></defs>
    <g id="Page-1" stroke="none" stroke-width="1" fill="none" fill-rule="evenodd">
        <g id="Pinterest" fill="#FFFFFF" fill-rule="nonzero">
            <path d="M7.23377863,0 C2.51145038,0 0,2.81036391 0,5.87396939 C0,7.29459292 0.85496183,9.067284 2.22423664,9.62935678 C2.43129771,9.71582951 2.54484733,9.67876977 2.59160305,9.49964767 C2.63167939,9.36376195 2.8120229,8.7090398 2.89885496,8.40020861 C2.92557252,8.30138262 2.91221374,8.21490989 2.82538168,8.12226053 C2.37118321,7.63430723 2.01049618,6.74487338 2.01049618,5.91102914 C2.01049618,3.77391724 3.84064885,1.69857159 6.95324427,1.69857159 C9.6450382,1.69857159 11.528626,3.32302369 11.528626,5.64543431 C11.528626,8.2704995 10.0324427,10.0864269 8.08874046,10.0864269 C7.01335878,10.0864269 6.21183206,9.30199571 6.46564885,8.33226574 C6.77290076,7.17723706 7.3740458,5.93573563 7.3740458,5.1018914 C7.3740458,4.3545199 6.91984733,3.7368575 5.99141221,3.7368575 C4.89599237,3.7368575 4.00763359,4.74364721 4.00763359,6.09632786 C4.00763359,6.9548786 4.33492366,7.53548125 4.33492366,7.53548125 C4.33492366,7.53548125 3.2528626,11.5996998 3.05248092,12.3594246 C2.71183206,13.6441623 3.09923664,15.7256846 3.13263359,15.9048067 C3.15267176,16.0036327 3.27290076,16.0345158 3.33969466,15.9542197 C3.44656489,15.8245106 4.75572519,14.0888793 5.1230916,12.8350246 C5.25667939,12.3779544 5.80438931,10.5249672 5.80438931,10.5249672 C6.16507634,11.1302764 7.20706107,11.6367596 8.31583969,11.6367596 C11.615458,11.6367596 14,8.94375152 14,5.60219794 C13.9866412,2.3965301 11.0343511,0 7.23377863,0" id="path-1"></path>
        </g>
    </g>
</svg>